<svg width="31" height="22" viewBox="0 0 31 22" fill="none" xmlns="http://www.w3.org/2000/svg">
<g opacity="0.5">
<path d="M6.106 16V15.048H8.15V8.468H6.526V7.726C6.93667 7.65133 7.29133 7.56267 7.59 7.46C7.898 7.348 8.17333 7.21733 8.416 7.068H9.298V15.048H11.146V16H6.106ZM15.459 16.168C15.039 16.168 14.647 16.1073 14.283 15.986C13.9283 15.8647 13.6203 15.6967 13.359 15.482C13.107 15.258 12.9063 14.9967 12.757 14.698C12.6077 14.3993 12.533 14.0727 12.533 13.718C12.533 13.4287 12.5797 13.1627 12.673 12.92C12.7757 12.668 12.9017 12.444 13.051 12.248C13.2097 12.0427 13.387 11.8653 13.583 11.716C13.7883 11.5573 13.9983 11.422 14.213 11.31V11.254C13.8863 11.0207 13.597 10.7407 13.345 10.414C13.093 10.078 12.967 9.672 12.967 9.196C12.967 8.85067 13.0323 8.538 13.163 8.258C13.2937 7.978 13.471 7.74 13.695 7.544C13.919 7.33867 14.185 7.18 14.493 7.068C14.801 6.956 15.137 6.9 15.501 6.9C15.893 6.9 16.243 6.96067 16.551 7.082C16.859 7.194 17.1203 7.35733 17.335 7.572C17.559 7.77733 17.727 8.02933 17.839 8.328C17.9603 8.61733 18.021 8.93467 18.021 9.28C18.021 9.51333 17.979 9.73733 17.895 9.952C17.8203 10.1667 17.7223 10.3673 17.601 10.554C17.489 10.7407 17.3583 10.9087 17.209 11.058C17.069 11.2073 16.929 11.3333 16.789 11.436V11.492C16.985 11.604 17.1763 11.7347 17.363 11.884C17.5497 12.024 17.713 12.1873 17.853 12.374C18.0023 12.5513 18.119 12.7567 18.203 12.99C18.2963 13.2233 18.343 13.4893 18.343 13.788C18.343 14.124 18.273 14.4367 18.133 14.726C17.993 15.0153 17.797 15.2673 17.545 15.482C17.293 15.6967 16.9897 15.8647 16.635 15.986C16.2803 16.1073 15.8883 16.168 15.459 16.168ZM16.089 11.128C16.3877 10.8573 16.6163 10.5727 16.775 10.274C16.943 9.97533 17.027 9.66267 17.027 9.336C17.027 8.888 16.8917 8.51467 16.621 8.216C16.3503 7.908 15.9677 7.754 15.473 7.754C15.053 7.754 14.7077 7.88467 14.437 8.146C14.1663 8.40733 14.031 8.75733 14.031 9.196C14.031 9.46667 14.087 9.7 14.199 9.896C14.311 10.0827 14.4603 10.2507 14.647 10.4C14.843 10.5493 15.0623 10.6847 15.305 10.806C15.557 10.918 15.8183 11.0253 16.089 11.128ZM15.487 15.314C16.0097 15.314 16.4297 15.1693 16.747 14.88C17.0737 14.5907 17.237 14.2127 17.237 13.746C17.237 13.4567 17.1717 13.2093 17.041 13.004C16.9103 12.7987 16.733 12.6213 16.509 12.472C16.285 12.3133 16.0237 12.1733 15.725 12.052C15.4357 11.9213 15.1323 11.7907 14.815 11.66C14.4603 11.9027 14.1617 12.1873 13.919 12.514C13.6857 12.8313 13.569 13.1953 13.569 13.606C13.569 13.858 13.6157 14.0867 13.709 14.292C13.8117 14.4973 13.947 14.6793 14.115 14.838C14.2923 14.9873 14.4977 15.104 14.731 15.188C14.9643 15.272 15.2163 15.314 15.487 15.314ZM21.942 14.544V11.814H19.394V10.946H21.942V8.216H22.852V10.946H25.4V11.814H22.852V14.544H21.942Z" fill="#E5E5E5"/>
<rect x="0.5" y="0.5" width="30" height="21" rx="1.5" stroke="white"/>
</g>
</svg>
